<svg xmlns="http://www.w3.org/2000/svg" xmlns:xlink="http://www.w3.org/1999/xlink" width="300" zoomAndPan="magnify" viewBox="0 0 224.87999 225" height="300" preserveAspectRatio="xMidYMid meet" version="1.0"><defs><clipPath id="436145355c"><path d="M 0 0.0585938 L 224.761719 0.0585938 L 224.761719 224.9375 L 0 224.9375 Z M 0 0.0585938 " clip-rule="nonzero"/></clipPath></defs><g clip-path="url(#436145355c)"><path fill="#ffffff" d="M 224.878906 112.5 C 224.878906 50.394531 174.546875 0.0585938 112.441406 0.0585938 C 50.335938 0.0585938 0 50.394531 0 112.5 C 0 165.207031 36.324219 209.480469 85.296875 221.644531 L 85.296875 146.847656 L 62.105469 146.847656 L 62.105469 112.5 L 85.296875 112.5 L 85.296875 97.699219 C 85.296875 59.441406 102.601562 41.699219 140.199219 41.699219 C 147.3125 41.699219 159.613281 43.101562 164.664062 44.507812 L 164.664062 75.605469 C 162.027344 75.34375 157.414062 75.167969 151.664062 75.167969 C 133.214844 75.167969 126.101562 82.148438 126.101562 100.289062 L 126.101562 112.5 L 162.820312 112.5 L 156.492188 146.847656 L 126.054688 146.847656 L 126.054688 224.105469 C 181.75 217.386719 224.878906 169.992188 224.878906 112.5 Z M 224.878906 112.5 " fill-opacity="1" fill-rule="nonzero"/></g></svg>